<?xml version="1.0" standalone="no"?>
<!DOCTYPE svg PUBLIC "-//W3C//DTD SVG 20010904//EN"
 "http://www.w3.org/TR/2001/REC-SVG-20010904/DTD/svg10.dtd">
<svg version="1.0" xmlns="http://www.w3.org/2000/svg"
 width="1024.000000pt" height="1024.000000pt" viewBox="0 0 1024.000000 1024.000000"
 preserveAspectRatio="xMidYMid meet">
<metadata>
Created by potrace 1.11, written by Peter Selinger 2001-2013
</metadata>
<g transform="translate(0.000000,1024.000000) scale(0.100000,-0.100000)"
fill="#000000" stroke="none">
<path d="M735 10229 c-341 -49 -610 -291 -707 -634 l-23 -80 -3 -4360 c-2
-4829 -8 -4450 62 -4622 88 -214 275 -397 489 -478 157 -59 -155 -55 4567 -55
4759 0 4411 -5 4579 60 212 82 405 278 486 493 59 158 55 -159 53 4602 l-3
4360 -23 80 c-88 311 -306 529 -617 617 l-80 23 -4360 1 c-2427 1 -4387 -2
-4420 -7z m5292 -713 c24 -21 29 -33 33 -93 l5 -68 268 -5 269 -5 24 -28 c23
-27 24 -33 24 -188 l0 -159 714 0 c595 0 727 -3 793 -15 427 -81 747 -410 812
-835 9 -56 11 -841 9 -3085 l-3 -3010 -22 -77 c-54 -189 -137 -333 -268 -463
-133 -134 -274 -215 -465 -267 l-85 -23 -3010 0 -3010 0 -81 22 c-188 50 -336
134 -469 268 -131 130 -214 274 -268 463 l-22 77 -3 3010 c-2 2244 0 3029 9
3085 65 425 385 754 812 835 66 12 196 15 773 15 l694 0 0 159 c0 155 1 161
24 188 l24 28 259 5 258 5 5 68 c4 60 9 72 33 93 l28 24 904 0 904 0 28 -24z"/>
<path d="M5059 9342 c-30 -56 -60 -104 -67 -107 -7 -2 -35 6 -63 20 -59 31
-58 41 -21 -156 16 -80 26 -151 24 -157 -6 -18 -39 -14 -54 6 -7 10 -39 47
-70 81 l-57 63 -12 -42 c-7 -23 -18 -44 -25 -47 -7 -2 -49 3 -94 12 -45 9 -84
15 -86 12 -3 -3 6 -45 21 -95 14 -50 25 -96 25 -102 0 -6 -16 -18 -35 -27 -19
-9 -35 -20 -35 -24 0 -4 68 -62 151 -129 165 -134 158 -123 133 -207 -8 -29
-1 -29 161 -4 66 10 126 16 134 13 11 -4 13 -33 7 -169 l-7 -163 26 0 26 0 -7
158 c-5 128 -4 159 7 168 10 8 46 6 134 -7 66 -10 132 -18 147 -18 l27 -1 -14
41 c-8 23 -15 47 -15 54 0 7 70 69 155 139 l156 125 -41 21 c-22 11 -40 23
-40 26 0 4 12 49 26 101 14 52 23 97 20 100 -2 3 -41 -3 -85 -12 -44 -10 -86
-15 -94 -12 -8 3 -18 24 -22 47 -4 22 -10 40 -15 38 -4 -2 -38 -38 -75 -80
-73 -83 -105 -99 -105 -50 1 15 13 94 29 175 15 81 25 146 22 144 -3 -2 -28
-13 -54 -26 -60 -28 -65 -24 -117 78 -66 130 -59 130 -121 13z"/>
<path d="M2145 8554 c-229 -49 -412 -235 -459 -466 -14 -69 -16 -387 -16
-3015 0 -2546 2 -2947 15 -3008 47 -225 235 -413 460 -460 106 -22 5854 -22
5960 0 226 48 413 236 460 462 13 64 15 437 13 3045 l-3 2973 -23 65 c-36 100
-79 169 -151 241 -72 72 -141 115 -241 150 l-65 24 -722 3 -723 3 0 -236 0
-237 -29 -29 -29 -29 -1487 0 -1487 0 -29 29 -29 29 0 236 0 236 -672 -1
c-554 0 -685 -3 -743 -15z m2028 -1321 c512 -296 938 -537 947 -537 9 0 435
241 947 537 590 340 941 537 957 537 55 0 79 -25 155 -156 358 -618 349 -598
294 -653 -16 -14 -335 -204 -710 -420 -376 -216 -683 -397 -683 -401 0 -4 307
-185 683 -401 375 -217 694 -406 710 -421 19 -18 27 -37 27 -60 0 -34 -18 -67
-301 -556 -96 -168 -118 -192 -174 -192 -16 0 -378 203 -958 538 -513 295
-939 537 -947 537 -8 0 -434 -242 -947 -537 -580 -335 -942 -538 -958 -538
-56 0 -78 24 -175 192 -294 511 -300 521 -300 555 0 24 8 43 28 62 15 14 334
203 710 420 375 216 682 397 682 401 0 4 -307 185 -682 401 -376 216 -695 406
-710 420 -49 48 -42 72 95 310 299 520 283 498 351 499 20 0 302 -158 959
-537z m1122 95 c50 -22 55 -49 55 -270 l0 -203 -109 -64 c-60 -35 -111 -65
-114 -65 -2 -1 -57 28 -121 64 l-116 65 0 205 c1 219 5 240 51 266 32 18 317
19 354 2z m-52 -1845 l106 -58 1 -587 0 -588 479 0 479 0 53 25 c102 46 174
60 319 60 110 0 149 -4 213 -23 279 -80 489 -290 569 -569 32 -112 32 -314 0
-426 -80 -279 -290 -489 -569 -569 -112 -32 -314 -32 -426 0 -235 68 -418 223
-522 445 -56 117 -70 184 -70 337 0 149 14 219 65 328 l29 62 -310 0 -309 0 0
-1016 c0 -930 -1 -1018 -17 -1044 -26 -44 -51 -50 -214 -50 -164 0 -196 8
-217 55 -9 19 -12 275 -12 1040 l0 1015 -315 0 -315 0 14 -22 c8 -13 29 -66
47 -118 27 -80 33 -114 36 -215 4 -85 0 -141 -10 -191 -65 -304 -285 -540
-584 -626 -112 -32 -314 -32 -426 0 -279 80 -489 290 -569 569 -30 102 -32
313 -5 413 64 237 226 430 450 535 117 56 184 70 337 70 145 0 217 -14 319
-60 l53 -25 484 0 484 0 0 588 0 587 108 56 c59 31 114 57 122 58 9 1 64 -25
123 -56z"/>
<path d="M3419 3877 c-102 -43 -163 -101 -208 -197 -22 -47 -26 -69 -26 -150
0 -87 3 -101 32 -161 39 -79 102 -140 181 -177 49 -23 70 -27 152 -27 82 0
103 4 152 27 76 35 138 95 179 170 33 60 34 68 34 168 0 98 -2 109 -32 165
-38 74 -105 138 -181 173 -82 38 -204 42 -283 9z"/>
<path d="M6546 3876 c-105 -44 -177 -118 -216 -223 -17 -46 -21 -74 -18 -138
6 -143 85 -262 216 -323 49 -23 70 -27 152 -27 82 0 103 4 152 27 79 37 142
98 181 177 29 60 32 74 32 161 0 87 -3 101 -32 161 -39 79 -102 140 -181 177
-83 39 -204 42 -286 8z"/>
</g>
</svg>
